<svg id="logosandtypes_com" xmlns="http://www.w3.org/2000/svg" viewBox="0 0 150 150.2"><path d="M0 .2h150v150H0V.2z" fill="none"/><linearGradient id="a" gradientUnits="userSpaceOnUse" x1="68.34" y1="71.576" x2="36.567" y2="16.542" gradientTransform="matrix(1 0 0 -1 0 150)"><stop offset="0" stop-color="#0052cc"/><stop offset=".923" stop-color="#2684ff"/></linearGradient><path d="M51.8 69.2c-1.2-1.5-3.4-1.8-4.9-.7-.4.3-.8.8-1 1.3L15.8 130c-.9 1.8-.2 3.9 1.6 4.8.5.2 1.1.4 1.6.4h41.9c1.4 0 2.6-.7 3.2-2 9.1-18.6 3.6-47-12.3-64z" fill="url(#a)"/><path d="M73.9 14.4c-15.3 23.5-17 53.3-4.6 78.4l20.2 40.4c.6 1.2 1.9 2 3.2 2h41.9c2 0 3.6-1.6 3.6-3.6 0-.6-.1-1.1-.4-1.6L80 14.4c-.8-1.7-2.9-2.4-4.5-1.6-.7.4-1.3.9-1.6 1.6z" fill="#2684ff"/></svg>